<mxfile host="app.diagrams.net" modified="2022-09-16T10:54:55.104Z" agent="5.0 (Windows NT 10.0; Win64; x64) AppleWebKit/537.36 (KHTML, like Gecko) Chrome/105.0.0.0 Safari/537.36" etag="ieplikHNEoH9JPbnHSla" version="20.3.1" type="github">
  <diagram id="dZncAWROymU7LEm-hvmR" name="Страница 1">
    <mxGraphModel dx="1247" dy="711" grid="1" gridSize="10" guides="1" tooltips="1" connect="1" arrows="1" fold="1" page="1" pageScale="1" pageWidth="827" pageHeight="1169" math="0" shadow="0">
      <root>
        <mxCell id="0" />
        <mxCell id="1" parent="0" />
        <mxCell id="YrbuwImnYtIEZX6WowXW-19" style="edgeStyle=orthogonalEdgeStyle;rounded=0;orthogonalLoop=1;jettySize=auto;html=1;exitX=0.5;exitY=0.5;exitDx=0;exitDy=0;exitPerimeter=0;entryX=0;entryY=0.5;entryDx=0;entryDy=0;endArrow=none;endFill=0;" parent="1" source="YrbuwImnYtIEZX6WowXW-1" target="YrbuwImnYtIEZX6WowXW-9" edge="1">
          <mxGeometry relative="1" as="geometry" />
        </mxCell>
        <mxCell id="YrbuwImnYtIEZX6WowXW-20" style="edgeStyle=orthogonalEdgeStyle;rounded=0;orthogonalLoop=1;jettySize=auto;html=1;exitX=0.5;exitY=0.5;exitDx=0;exitDy=0;exitPerimeter=0;entryX=0;entryY=0.5;entryDx=0;entryDy=0;endArrow=none;endFill=0;" parent="1" source="YrbuwImnYtIEZX6WowXW-1" target="YrbuwImnYtIEZX6WowXW-10" edge="1">
          <mxGeometry relative="1" as="geometry" />
        </mxCell>
        <mxCell id="YrbuwImnYtIEZX6WowXW-21" style="edgeStyle=orthogonalEdgeStyle;rounded=0;orthogonalLoop=1;jettySize=auto;html=1;exitX=0.5;exitY=0.5;exitDx=0;exitDy=0;exitPerimeter=0;entryX=0;entryY=0.5;entryDx=0;entryDy=0;endArrow=none;endFill=0;" parent="1" source="YrbuwImnYtIEZX6WowXW-1" target="YrbuwImnYtIEZX6WowXW-13" edge="1">
          <mxGeometry relative="1" as="geometry" />
        </mxCell>
        <mxCell id="YrbuwImnYtIEZX6WowXW-22" style="edgeStyle=orthogonalEdgeStyle;rounded=0;orthogonalLoop=1;jettySize=auto;html=1;exitX=0.5;exitY=0.5;exitDx=0;exitDy=0;exitPerimeter=0;entryX=0;entryY=0.5;entryDx=0;entryDy=0;endArrow=none;endFill=0;" parent="1" source="YrbuwImnYtIEZX6WowXW-1" target="YrbuwImnYtIEZX6WowXW-15" edge="1">
          <mxGeometry relative="1" as="geometry" />
        </mxCell>
        <mxCell id="YrbuwImnYtIEZX6WowXW-23" style="edgeStyle=orthogonalEdgeStyle;rounded=0;orthogonalLoop=1;jettySize=auto;html=1;exitX=0.5;exitY=0.5;exitDx=0;exitDy=0;exitPerimeter=0;entryX=0;entryY=0.5;entryDx=0;entryDy=0;endArrow=none;endFill=0;" parent="1" source="YrbuwImnYtIEZX6WowXW-1" target="YrbuwImnYtIEZX6WowXW-16" edge="1">
          <mxGeometry relative="1" as="geometry" />
        </mxCell>
        <mxCell id="YrbuwImnYtIEZX6WowXW-45" style="edgeStyle=orthogonalEdgeStyle;rounded=0;orthogonalLoop=1;jettySize=auto;html=1;exitX=0.5;exitY=0.5;exitDx=0;exitDy=0;exitPerimeter=0;entryX=0;entryY=0.5;entryDx=0;entryDy=0;endArrow=none;endFill=0;" parent="1" source="YrbuwImnYtIEZX6WowXW-1" target="YrbuwImnYtIEZX6WowXW-44" edge="1">
          <mxGeometry relative="1" as="geometry" />
        </mxCell>
        <mxCell id="YrbuwImnYtIEZX6WowXW-1" value="Споживач" style="shape=umlActor;verticalLabelPosition=bottom;verticalAlign=top;html=1;outlineConnect=0;" parent="1" vertex="1">
          <mxGeometry x="20" y="260" width="30" height="60" as="geometry" />
        </mxCell>
        <mxCell id="YrbuwImnYtIEZX6WowXW-42" style="edgeStyle=orthogonalEdgeStyle;rounded=0;orthogonalLoop=1;jettySize=auto;html=1;endArrow=block;endFill=0;" parent="1" edge="1">
          <mxGeometry relative="1" as="geometry">
            <mxPoint x="780" y="500" as="sourcePoint" />
            <Array as="points">
              <mxPoint x="770" y="660" />
              <mxPoint x="35" y="660" />
            </Array>
            <mxPoint x="35" y="340" as="targetPoint" />
          </mxGeometry>
        </mxCell>
        <mxCell id="YrbuwImnYtIEZX6WowXW-2" value="Кур&#39;єр" style="shape=umlActor;verticalLabelPosition=bottom;verticalAlign=top;html=1;outlineConnect=0;" parent="1" vertex="1">
          <mxGeometry x="790" y="440" width="30" height="60" as="geometry" />
        </mxCell>
        <mxCell id="YrbuwImnYtIEZX6WowXW-41" style="edgeStyle=orthogonalEdgeStyle;rounded=0;orthogonalLoop=1;jettySize=auto;html=1;entryX=0.5;entryY=0.5;entryDx=0;entryDy=0;entryPerimeter=0;endArrow=block;endFill=0;" parent="1" target="YrbuwImnYtIEZX6WowXW-2" edge="1">
          <mxGeometry relative="1" as="geometry">
            <Array as="points">
              <mxPoint x="775" y="380" />
              <mxPoint x="775" y="470" />
            </Array>
            <mxPoint x="775" y="370" as="sourcePoint" />
          </mxGeometry>
        </mxCell>
        <mxCell id="YrbuwImnYtIEZX6WowXW-3" value="Робітник&lt;br&gt;" style="shape=umlActor;verticalLabelPosition=bottom;verticalAlign=top;html=1;outlineConnect=0;" parent="1" vertex="1">
          <mxGeometry x="760" y="290" width="30" height="60" as="geometry" />
        </mxCell>
        <mxCell id="YrbuwImnYtIEZX6WowXW-4" value="Сервіс Е-Рау" style="shape=umlActor;verticalLabelPosition=bottom;verticalAlign=top;html=1;outlineConnect=0;" parent="1" vertex="1">
          <mxGeometry x="760" y="120" width="30" height="60" as="geometry" />
        </mxCell>
        <mxCell id="YrbuwImnYtIEZX6WowXW-8" value="" style="swimlane;startSize=0;" parent="1" vertex="1">
          <mxGeometry x="180" y="30" width="550" height="590" as="geometry" />
        </mxCell>
        <mxCell id="YrbuwImnYtIEZX6WowXW-9" value="Отримати список&amp;nbsp;&lt;br&gt;продуктів" style="ellipse;whiteSpace=wrap;html=1;" parent="YrbuwImnYtIEZX6WowXW-8" vertex="1">
          <mxGeometry x="40" y="20" width="120" height="60" as="geometry" />
        </mxCell>
        <mxCell id="YrbuwImnYtIEZX6WowXW-12" value="Авторизувати&amp;nbsp;&lt;br&gt;користувача" style="ellipse;whiteSpace=wrap;html=1;" parent="YrbuwImnYtIEZX6WowXW-8" vertex="1">
          <mxGeometry x="290" y="310" width="120" height="60" as="geometry" />
        </mxCell>
        <mxCell id="YrbuwImnYtIEZX6WowXW-11" value="Е-сплатити&lt;br&gt;замовлення" style="ellipse;whiteSpace=wrap;html=1;" parent="YrbuwImnYtIEZX6WowXW-8" vertex="1">
          <mxGeometry x="370" y="190" width="120" height="60" as="geometry" />
        </mxCell>
        <mxCell id="YrbuwImnYtIEZX6WowXW-10" value="Створити замовлення" style="ellipse;whiteSpace=wrap;html=1;" parent="YrbuwImnYtIEZX6WowXW-8" vertex="1">
          <mxGeometry x="40" y="105" width="120" height="60" as="geometry" />
        </mxCell>
        <mxCell id="YrbuwImnYtIEZX6WowXW-13" value="Сплатити замовлення" style="ellipse;whiteSpace=wrap;html=1;" parent="YrbuwImnYtIEZX6WowXW-8" vertex="1">
          <mxGeometry x="40" y="190" width="120" height="60" as="geometry" />
        </mxCell>
        <mxCell id="YrbuwImnYtIEZX6WowXW-14" value="Виконати замовлення" style="ellipse;whiteSpace=wrap;html=1;" parent="YrbuwImnYtIEZX6WowXW-8" vertex="1">
          <mxGeometry x="40" y="260" width="120" height="60" as="geometry" />
        </mxCell>
        <mxCell id="YrbuwImnYtIEZX6WowXW-15" value="Розмістити свою роботу" style="ellipse;whiteSpace=wrap;html=1;" parent="YrbuwImnYtIEZX6WowXW-8" vertex="1">
          <mxGeometry x="40" y="350" width="120" height="60" as="geometry" />
        </mxCell>
        <mxCell id="YrbuwImnYtIEZX6WowXW-16" value="Оцінити чужу &lt;br&gt;роботу" style="ellipse;whiteSpace=wrap;html=1;" parent="YrbuwImnYtIEZX6WowXW-8" vertex="1">
          <mxGeometry x="40" y="430" width="120" height="60" as="geometry" />
        </mxCell>
        <mxCell id="YrbuwImnYtIEZX6WowXW-28" value="" style="endArrow=classic;dashed=1;html=1;rounded=0;entryX=0;entryY=0.5;entryDx=0;entryDy=0;exitX=1;exitY=0.5;exitDx=0;exitDy=0;endFill=1;" parent="YrbuwImnYtIEZX6WowXW-8" source="YrbuwImnYtIEZX6WowXW-10" target="YrbuwImnYtIEZX6WowXW-12" edge="1">
          <mxGeometry width="50" height="50" relative="1" as="geometry">
            <mxPoint x="150" y="270" as="sourcePoint" />
            <mxPoint x="200" y="220" as="targetPoint" />
          </mxGeometry>
        </mxCell>
        <mxCell id="YrbuwImnYtIEZX6WowXW-29" value="include" style="text;html=1;align=center;verticalAlign=middle;resizable=0;points=[];autosize=1;strokeColor=none;fillColor=none;" parent="YrbuwImnYtIEZX6WowXW-8" vertex="1">
          <mxGeometry x="190" y="150" width="60" height="30" as="geometry" />
        </mxCell>
        <mxCell id="YrbuwImnYtIEZX6WowXW-31" value="extend" style="text;html=1;align=center;verticalAlign=middle;resizable=0;points=[];autosize=1;strokeColor=none;fillColor=none;" parent="YrbuwImnYtIEZX6WowXW-8" vertex="1">
          <mxGeometry x="310" y="190" width="60" height="30" as="geometry" />
        </mxCell>
        <mxCell id="YrbuwImnYtIEZX6WowXW-33" value="" style="endArrow=classic;dashed=1;html=1;rounded=0;entryX=1;entryY=0.5;entryDx=0;entryDy=0;endFill=1;exitX=0;exitY=0.5;exitDx=0;exitDy=0;" parent="YrbuwImnYtIEZX6WowXW-8" source="YrbuwImnYtIEZX6WowXW-11" target="YrbuwImnYtIEZX6WowXW-13" edge="1">
          <mxGeometry width="50" height="50" relative="1" as="geometry">
            <mxPoint x="-170" y="116.3636474609375" as="sourcePoint" />
            <mxPoint x="270" y="240" as="targetPoint" />
          </mxGeometry>
        </mxCell>
        <mxCell id="YrbuwImnYtIEZX6WowXW-35" value="include" style="text;html=1;align=center;verticalAlign=middle;resizable=0;points=[];autosize=1;strokeColor=none;fillColor=none;" parent="YrbuwImnYtIEZX6WowXW-8" vertex="1">
          <mxGeometry x="180" y="335" width="60" height="30" as="geometry" />
        </mxCell>
        <mxCell id="YrbuwImnYtIEZX6WowXW-36" value="include" style="text;html=1;align=center;verticalAlign=middle;resizable=0;points=[];autosize=1;strokeColor=none;fillColor=none;" parent="YrbuwImnYtIEZX6WowXW-8" vertex="1">
          <mxGeometry x="220" y="400" width="60" height="30" as="geometry" />
        </mxCell>
        <mxCell id="YrbuwImnYtIEZX6WowXW-37" value="" style="endArrow=classic;dashed=1;html=1;rounded=0;exitX=1;exitY=0.5;exitDx=0;exitDy=0;endFill=1;entryX=0;entryY=0.5;entryDx=0;entryDy=0;" parent="YrbuwImnYtIEZX6WowXW-8" source="YrbuwImnYtIEZX6WowXW-16" target="YrbuwImnYtIEZX6WowXW-12" edge="1">
          <mxGeometry width="50" height="50" relative="1" as="geometry">
            <mxPoint x="170" y="390" as="sourcePoint" />
            <mxPoint x="290" y="310" as="targetPoint" />
          </mxGeometry>
        </mxCell>
        <mxCell id="YrbuwImnYtIEZX6WowXW-34" value="" style="endArrow=classic;dashed=1;html=1;rounded=0;exitX=1;exitY=0.5;exitDx=0;exitDy=0;endFill=1;entryX=0;entryY=0.5;entryDx=0;entryDy=0;" parent="YrbuwImnYtIEZX6WowXW-8" source="YrbuwImnYtIEZX6WowXW-15" target="YrbuwImnYtIEZX6WowXW-12" edge="1">
          <mxGeometry width="50" height="50" relative="1" as="geometry">
            <mxPoint x="170" y="145" as="sourcePoint" />
            <mxPoint x="280" y="300" as="targetPoint" />
          </mxGeometry>
        </mxCell>
        <mxCell id="YrbuwImnYtIEZX6WowXW-43" value="Надіслати&amp;nbsp;&lt;br&gt;з бази даних&amp;nbsp;&lt;br&gt;фіз.вправ" style="ellipse;whiteSpace=wrap;html=1;" parent="YrbuwImnYtIEZX6WowXW-8" vertex="1">
          <mxGeometry x="290" y="510" width="120" height="60" as="geometry" />
        </mxCell>
        <mxCell id="YrbuwImnYtIEZX6WowXW-44" value="Отримати список вправ на день" style="ellipse;whiteSpace=wrap;html=1;" parent="YrbuwImnYtIEZX6WowXW-8" vertex="1">
          <mxGeometry x="40" y="510" width="120" height="60" as="geometry" />
        </mxCell>
        <mxCell id="YrbuwImnYtIEZX6WowXW-47" value="" style="endArrow=none;dashed=1;html=1;rounded=0;exitX=1;exitY=0.5;exitDx=0;exitDy=0;entryX=0;entryY=0.5;entryDx=0;entryDy=0;" parent="YrbuwImnYtIEZX6WowXW-8" source="YrbuwImnYtIEZX6WowXW-44" target="YrbuwImnYtIEZX6WowXW-43" edge="1">
          <mxGeometry width="50" height="50" relative="1" as="geometry">
            <mxPoint x="150" y="340" as="sourcePoint" />
            <mxPoint x="200" y="290" as="targetPoint" />
          </mxGeometry>
        </mxCell>
        <mxCell id="YrbuwImnYtIEZX6WowXW-48" value="include" style="text;html=1;align=center;verticalAlign=middle;resizable=0;points=[];autosize=1;strokeColor=none;fillColor=none;" parent="YrbuwImnYtIEZX6WowXW-8" vertex="1">
          <mxGeometry x="200" y="510" width="60" height="30" as="geometry" />
        </mxCell>
        <mxCell id="YrbuwImnYtIEZX6WowXW-25" value="" style="endArrow=none;html=1;rounded=0;entryX=0.5;entryY=0.5;entryDx=0;entryDy=0;entryPerimeter=0;exitX=1;exitY=0;exitDx=0;exitDy=0;" parent="1" source="YrbuwImnYtIEZX6WowXW-11" target="YrbuwImnYtIEZX6WowXW-4" edge="1">
          <mxGeometry width="50" height="50" relative="1" as="geometry">
            <mxPoint x="570" y="320" as="sourcePoint" />
            <mxPoint x="620" y="270" as="targetPoint" />
          </mxGeometry>
        </mxCell>
        <mxCell id="YrbuwImnYtIEZX6WowXW-39" value="" style="endArrow=classic;html=1;rounded=0;entryX=0.5;entryY=0.5;entryDx=0;entryDy=0;entryPerimeter=0;exitX=1;exitY=0.5;exitDx=0;exitDy=0;" parent="1" source="YrbuwImnYtIEZX6WowXW-13" target="YrbuwImnYtIEZX6WowXW-3" edge="1">
          <mxGeometry width="50" height="50" relative="1" as="geometry">
            <mxPoint x="815" y="280" as="sourcePoint" />
            <mxPoint x="80" y="470" as="targetPoint" />
          </mxGeometry>
        </mxCell>
        <mxCell id="YrbuwImnYtIEZX6WowXW-40" value="" style="endArrow=classic;html=1;rounded=0;entryX=1;entryY=0.5;entryDx=0;entryDy=0;exitX=0.5;exitY=0.5;exitDx=0;exitDy=0;exitPerimeter=0;" parent="1" source="YrbuwImnYtIEZX6WowXW-3" target="YrbuwImnYtIEZX6WowXW-14" edge="1">
          <mxGeometry width="50" height="50" relative="1" as="geometry">
            <mxPoint x="650" y="460" as="sourcePoint" />
            <mxPoint x="700" y="410" as="targetPoint" />
          </mxGeometry>
        </mxCell>
        <mxCell id="ZkgDGA_1mTLX7g7-otge-2" value="" style="curved=1;endArrow=none;html=1;rounded=0;exitX=0.5;exitY=0.5;exitDx=0;exitDy=0;exitPerimeter=0;entryX=0;entryY=0.5;entryDx=0;entryDy=0;endFill=0;" edge="1" parent="1" source="YrbuwImnYtIEZX6WowXW-1" target="YrbuwImnYtIEZX6WowXW-12">
          <mxGeometry width="50" height="50" relative="1" as="geometry">
            <mxPoint x="60" y="460" as="sourcePoint" />
            <mxPoint x="110" y="410" as="targetPoint" />
            <Array as="points">
              <mxPoint x="160" y="390" />
            </Array>
          </mxGeometry>
        </mxCell>
      </root>
    </mxGraphModel>
  </diagram>
</mxfile>
